<svg xmlns:inkscape="http://www.inkscape.org/namespaces/inkscape" xmlns:sodipodi="http://sodipodi.sourceforge.net/DTD/sodipodi-0.dtd" xmlns="http://www.w3.org/2000/svg" xmlns:svg="http://www.w3.org/2000/svg" width="208.3486mm" height="75.238014mm" viewBox="0 0 208.3486 75.238014" version="1.1" id="svg378169" inkscape:version="1.1 (c68e22c387, 2021-05-23)" sodipodi:docname="CHIMES-TensorStructure.svg">
  <sodipodi:namedview id="namedview378171" pagecolor="#505050" bordercolor="#ffffff" borderopacity="1" inkscape:pageshadow="0" inkscape:pageopacity="0" inkscape:pagecheckerboard="1" inkscape:document-units="mm" showgrid="false" fit-margin-top="0" fit-margin-left="0" fit-margin-right="0" fit-margin-bottom="0" inkscape:zoom="1.6819304" inkscape:cx="467.61744" inkscape:cy="239.30835" inkscape:window-width="3376" inkscape:window-height="1417" inkscape:window-x="199" inkscape:window-y="-8" inkscape:window-maximized="1" inkscape:current-layer="layer1"/>
  <defs id="defs378166">
    <marker style="overflow:visible" id="Arrow1Lstart" refX="0" refY="0" orient="auto" inkscape:stockid="Arrow1Lstart" inkscape:isstock="true">
      <path transform="matrix(0.8,0,0,0.8,10,0)" style="fill:context-stroke;fill-rule:evenodd;stroke:context-stroke;stroke-width:1pt" d="M 0,0 5,-5 -12.5,0 5,5 Z" id="path78266"/>
    </marker>
    <marker style="overflow:visible" id="Arrow1Lend" refX="0" refY="0" orient="auto" inkscape:stockid="Arrow1Lend" inkscape:isstock="true">
      <path transform="matrix(-0.8,0,0,-0.8,-10,0)" style="fill:context-stroke;fill-rule:evenodd;stroke:context-stroke;stroke-width:1pt" d="M 0,0 5,-5 -12.5,0 5,5 Z" id="path78269"/>
    </marker>
    <marker style="overflow:visible" id="marker378314" refX="0" refY="0" orient="auto" inkscape:stockid="Arrow1Lstart" inkscape:isstock="true">
      <path transform="matrix(0.8,0,0,0.8,10,0)" style="fill:context-stroke;fill-rule:evenodd;stroke:context-stroke;stroke-width:1pt" d="M 0,0 5,-5 -12.5,0 5,5 Z" id="path378312"/>
    </marker>
    <marker style="overflow:visible" id="marker378318" refX="0" refY="0" orient="auto" inkscape:stockid="Arrow1Lend" inkscape:isstock="true">
      <path transform="matrix(-0.8,0,0,-0.8,-10,0)" style="fill:context-stroke;fill-rule:evenodd;stroke:context-stroke;stroke-width:1pt" d="M 0,0 5,-5 -12.5,0 5,5 Z" id="path378316"/>
    </marker>
    <marker style="overflow:visible" id="marker378322" refX="0" refY="0" orient="auto" inkscape:stockid="Arrow1Lstart" inkscape:isstock="true">
      <path transform="matrix(0.8,0,0,0.8,10,0)" style="fill:context-stroke;fill-rule:evenodd;stroke:context-stroke;stroke-width:1pt" d="M 0,0 5,-5 -12.5,0 5,5 Z" id="path378320"/>
    </marker>
    <marker style="overflow:visible" id="marker378326" refX="0" refY="0" orient="auto" inkscape:stockid="Arrow1Lend" inkscape:isstock="true">
      <path transform="matrix(-0.8,0,0,-0.8,-10,0)" style="fill:context-stroke;fill-rule:evenodd;stroke:context-stroke;stroke-width:1pt" d="M 0,0 5,-5 -12.5,0 5,5 Z" id="path378324"/>
    </marker>
    <marker style="overflow:visible" id="marker378330" refX="0" refY="0" orient="auto" inkscape:stockid="Arrow1Lstart" inkscape:isstock="true">
      <path transform="matrix(0.8,0,0,0.8,10,0)" style="fill:context-stroke;fill-rule:evenodd;stroke:context-stroke;stroke-width:1pt" d="M 0,0 5,-5 -12.5,0 5,5 Z" id="path378328"/>
    </marker>
    <marker style="overflow:visible" id="marker378334" refX="0" refY="0" orient="auto" inkscape:stockid="Arrow1Lend" inkscape:isstock="true">
      <path transform="matrix(-0.8,0,0,-0.8,-10,0)" style="fill:context-stroke;fill-rule:evenodd;stroke:context-stroke;stroke-width:1pt" d="M 0,0 5,-5 -12.5,0 5,5 Z" id="path378332"/>
    </marker>
    <marker style="overflow:visible" id="marker378338" refX="0" refY="0" orient="auto" inkscape:stockid="Arrow1Lstart" inkscape:isstock="true">
      <path transform="matrix(0.8,0,0,0.8,10,0)" style="fill:context-stroke;fill-rule:evenodd;stroke:context-stroke;stroke-width:1pt" d="M 0,0 5,-5 -12.5,0 5,5 Z" id="path378336"/>
    </marker>
    <marker style="overflow:visible" id="marker378342" refX="0" refY="0" orient="auto" inkscape:stockid="Arrow1Lend" inkscape:isstock="true">
      <path transform="matrix(-0.8,0,0,-0.8,-10,0)" style="fill:context-stroke;fill-rule:evenodd;stroke:context-stroke;stroke-width:1pt" d="M 0,0 5,-5 -12.5,0 5,5 Z" id="path378340"/>
    </marker>
    <marker style="overflow:visible" id="marker378346" refX="0" refY="0" orient="auto" inkscape:stockid="Arrow1Lend" inkscape:isstock="true">
      <path transform="matrix(-0.8,0,0,-0.8,-10,0)" style="fill:context-stroke;fill-rule:evenodd;stroke:context-stroke;stroke-width:1pt" d="M 0,0 5,-5 -12.5,0 5,5 Z" id="path378344"/>
    </marker>
    <marker style="overflow:visible" id="Arrow1Lstart-0" refX="0" refY="0" orient="auto" inkscape:stockid="Arrow1Lstart" inkscape:isstock="true">
      <path transform="matrix(0.8,0,0,0.8,10,0)" style="fill:context-stroke;fill-rule:evenodd;stroke:context-stroke;stroke-width:1pt" d="M 0,0 5,-5 -12.5,0 5,5 Z" id="path78266-0"/>
    </marker>
    <marker style="overflow:visible" id="Arrow1Lend-2" refX="0" refY="0" orient="auto" inkscape:stockid="Arrow1Lend" inkscape:isstock="true">
      <path transform="matrix(-0.8,0,0,-0.8,-10,0)" style="fill:context-stroke;fill-rule:evenodd;stroke:context-stroke;stroke-width:1pt" d="M 0,0 5,-5 -12.5,0 5,5 Z" id="path78269-5"/>
    </marker>
    <marker style="overflow:visible" id="marker378986" refX="0" refY="0" orient="auto" inkscape:stockid="Arrow1Lstart" inkscape:isstock="true">
      <path transform="matrix(0.8,0,0,0.8,10,0)" style="fill:context-stroke;fill-rule:evenodd;stroke:context-stroke;stroke-width:1pt" d="M 0,0 5,-5 -12.5,0 5,5 Z" id="path378984"/>
    </marker>
    <marker style="overflow:visible" id="marker378990" refX="0" refY="0" orient="auto" inkscape:stockid="Arrow1Lend" inkscape:isstock="true">
      <path transform="matrix(-0.8,0,0,-0.8,-10,0)" style="fill:context-stroke;fill-rule:evenodd;stroke:context-stroke;stroke-width:1pt" d="M 0,0 5,-5 -12.5,0 5,5 Z" id="path378988"/>
    </marker>
    <marker style="overflow:visible" id="marker378994" refX="0" refY="0" orient="auto" inkscape:stockid="Arrow1Lstart" inkscape:isstock="true">
      <path transform="matrix(0.8,0,0,0.8,10,0)" style="fill:context-stroke;fill-rule:evenodd;stroke:context-stroke;stroke-width:1pt" d="M 0,0 5,-5 -12.5,0 5,5 Z" id="path378992"/>
    </marker>
    <marker style="overflow:visible" id="marker378998" refX="0" refY="0" orient="auto" inkscape:stockid="Arrow1Lend" inkscape:isstock="true">
      <path transform="matrix(-0.8,0,0,-0.8,-10,0)" style="fill:context-stroke;fill-rule:evenodd;stroke:context-stroke;stroke-width:1pt" d="M 0,0 5,-5 -12.5,0 5,5 Z" id="path378996"/>
    </marker>
    <marker style="overflow:visible" id="Arrow1Lstart-3" refX="0" refY="0" orient="auto" inkscape:stockid="Arrow1Lstart" inkscape:isstock="true">
      <path transform="matrix(0.8,0,0,0.8,10,0)" style="fill:context-stroke;fill-rule:evenodd;stroke:context-stroke;stroke-width:1pt" d="M 0,0 5,-5 -12.5,0 5,5 Z" id="path78266-4"/>
    </marker>
    <marker style="overflow:visible" id="Arrow1Lend-9" refX="0" refY="0" orient="auto" inkscape:stockid="Arrow1Lend" inkscape:isstock="true">
      <path transform="matrix(-0.8,0,0,-0.8,-10,0)" style="fill:context-stroke;fill-rule:evenodd;stroke:context-stroke;stroke-width:1pt" d="M 0,0 5,-5 -12.5,0 5,5 Z" id="path78269-6"/>
    </marker>
    <marker style="overflow:visible" id="marker379006" refX="0" refY="0" orient="auto" inkscape:stockid="Arrow1Lstart" inkscape:isstock="true">
      <path transform="matrix(0.8,0,0,0.8,10,0)" style="fill:context-stroke;fill-rule:evenodd;stroke:context-stroke;stroke-width:1pt" d="M 0,0 5,-5 -12.5,0 5,5 Z" id="path379004"/>
    </marker>
    <marker style="overflow:visible" id="marker379010" refX="0" refY="0" orient="auto" inkscape:stockid="Arrow1Lend" inkscape:isstock="true">
      <path transform="matrix(-0.8,0,0,-0.8,-10,0)" style="fill:context-stroke;fill-rule:evenodd;stroke:context-stroke;stroke-width:1pt" d="M 0,0 5,-5 -12.5,0 5,5 Z" id="path379008"/>
    </marker>
    <marker style="overflow:visible" id="marker379014" refX="0" refY="0" orient="auto" inkscape:stockid="Arrow1Lstart" inkscape:isstock="true">
      <path transform="matrix(0.8,0,0,0.8,10,0)" style="fill:context-stroke;fill-rule:evenodd;stroke:context-stroke;stroke-width:1pt" d="M 0,0 5,-5 -12.5,0 5,5 Z" id="path379012"/>
    </marker>
    <marker style="overflow:visible" id="marker379018" refX="0" refY="0" orient="auto" inkscape:stockid="Arrow1Lend" inkscape:isstock="true">
      <path transform="matrix(-0.8,0,0,-0.8,-10,0)" style="fill:context-stroke;fill-rule:evenodd;stroke:context-stroke;stroke-width:1pt" d="M 0,0 5,-5 -12.5,0 5,5 Z" id="path379016"/>
    </marker>
    <marker style="overflow:visible" id="marker379022" refX="0" refY="0" orient="auto" inkscape:stockid="Arrow1Lstart" inkscape:isstock="true">
      <path transform="matrix(0.8,0,0,0.8,10,0)" style="fill:context-stroke;fill-rule:evenodd;stroke:context-stroke;stroke-width:1pt" d="M 0,0 5,-5 -12.5,0 5,5 Z" id="path379020"/>
    </marker>
    <marker style="overflow:visible" id="marker379026" refX="0" refY="0" orient="auto" inkscape:stockid="Arrow1Lend" inkscape:isstock="true">
      <path transform="matrix(-0.8,0,0,-0.8,-10,0)" style="fill:context-stroke;fill-rule:evenodd;stroke:context-stroke;stroke-width:1pt" d="M 0,0 5,-5 -12.5,0 5,5 Z" id="path379024"/>
    </marker>
    <marker style="overflow:visible" id="marker379030" refX="0" refY="0" orient="auto" inkscape:stockid="Arrow1Lstart" inkscape:isstock="true">
      <path transform="matrix(0.8,0,0,0.8,10,0)" style="fill:context-stroke;fill-rule:evenodd;stroke:context-stroke;stroke-width:1pt" d="M 0,0 5,-5 -12.5,0 5,5 Z" id="path379028"/>
    </marker>
    <marker style="overflow:visible" id="marker379034" refX="0" refY="0" orient="auto" inkscape:stockid="Arrow1Lend" inkscape:isstock="true">
      <path transform="matrix(-0.8,0,0,-0.8,-10,0)" style="fill:context-stroke;fill-rule:evenodd;stroke:context-stroke;stroke-width:1pt" d="M 0,0 5,-5 -12.5,0 5,5 Z" id="path379032"/>
    </marker>
  </defs>
  <g inkscape:label="Layer 1" inkscape:groupmode="layer" id="layer1" transform="translate(-51.888023,-163.8861)">
    <g id="g312482" transform="matrix(0.83296096,0,0,0.83296096,42.59652,25.594116)">
      <rect style="fill:#8c8c8c;fill-opacity:1;stroke:#000000;stroke-width:0.679014;stroke-opacity:1" id="rect79103" width="17.661469" height="14.521242" x="276.13547" y="268.45343" ry="0" transform="matrix(1,0,-0.70747167,0.70674171,0,0)"/>
      <rect style="fill:#8c8c8c;fill-opacity:1;stroke:#000000;stroke-width:0.679014;stroke-opacity:1" id="rect78941" width="17.661469" height="14.521242" x="271.31427" y="261.63876" ry="0" transform="matrix(1,0,-0.70747167,0.70674171,0,0)"/>
      <rect style="fill:#8c8c8c;fill-opacity:1;stroke:#000000;stroke-width:0.679014;stroke-opacity:1" id="rect37383" width="17.661469" height="14.521242" x="266.62677" y="255.01306" ry="0" transform="matrix(1,0,-0.70747167,0.70674171,0,0)"/>
      <text xml:space="preserve" style="font-size:5.4977px;line-height:0.85;font-family:Helvetica;-inkscape-font-specification:Helvetica;text-align:center;text-anchor:middle;stroke-width:0.137443" x="97.488113" y="176.2845" id="text43459"><tspan sodipodi:role="line" style="font-style:normal;font-variant:normal;font-weight:normal;font-stretch:normal;font-family:'Linux Libertine';-inkscape-font-specification:'Linux Libertine';stroke-width:0.137443" x="97.488113" y="176.2845" id="tspan43457">coupling</tspan></text>
      <text xml:space="preserve" style="font-size:5.4977px;line-height:0.85;font-family:Helvetica;-inkscape-font-specification:Helvetica;text-align:center;text-anchor:middle;stroke-width:0.137443" x="115.70391" y="169.8633" id="text45583"><tspan sodipodi:role="line" style="font-style:normal;font-variant:normal;font-weight:normal;font-stretch:normal;font-family:'Linux Libertine';-inkscape-font-specification:'Linux Libertine';stroke-width:0.137443" x="115.70391" y="169.8633" id="tspan45581">parrallel</tspan></text>
      <text xml:space="preserve" style="font-size:5.4977px;line-height:0.85;font-family:Helvetica;-inkscape-font-specification:Helvetica;text-align:center;text-anchor:middle;stroke-width:0.137443" x="-82.120094" y="181.28671" id="text49109" transform="rotate(-46.612673)"><tspan sodipodi:role="line" style="font-style:normal;font-variant:normal;font-weight:normal;font-stretch:normal;font-family:'Linux Libertine';-inkscape-font-specification:'Linux Libertine';stroke-width:0.137443" x="-82.120094" y="181.28671" id="tspan49107">agents</tspan></text>
      <text xml:space="preserve" style="font-size:5.4977px;line-height:0.85;font-family:Helvetica;-inkscape-font-specification:Helvetica;text-align:center;text-anchor:middle;stroke-width:0.137443" x="159.76889" y="187.32344" id="text75981"><tspan sodipodi:role="line" style="font-style:normal;font-variant:normal;font-weight:normal;font-stretch:normal;font-family:'Linux Libertine';-inkscape-font-specification:'Linux Libertine';stroke-width:0.137443" x="159.76889" y="187.32344" id="tspan75979">time</tspan></text>
      <text xml:space="preserve" style="font-size:5.4977px;line-height:0.85;font-family:Helvetica;-inkscape-font-specification:Helvetica;text-align:center;text-anchor:middle;stroke-width:0.137443" x="-105.58667" y="173.60915" id="text76995" transform="rotate(-46.612673)"><tspan sodipodi:role="line" style="font-style:normal;font-variant:normal;font-weight:normal;font-stretch:normal;font-family:'Linux Libertine';-inkscape-font-specification:'Linux Libertine';stroke-width:0.137443" x="-105.58667" y="173.60915" id="tspan76993">region</tspan></text>
      <path style="fill:none;stroke:#000000;stroke-width:0.265;stroke-linecap:butt;stroke-linejoin:miter;stroke-miterlimit:4;stroke-dasharray:none;stroke-opacity:1;marker-start:url(#Arrow1Lstart);marker-end:url(#Arrow1Lend)" d="M 31.036142,220.72089 75.314405,176.59574" id="path77266"/>
      <path style="fill:none;stroke:#000000;stroke-width:0.265;stroke-linecap:butt;stroke-linejoin:miter;stroke-miterlimit:4;stroke-dasharray:none;stroke-opacity:1;marker-start:url(#Arrow1Lstart);marker-end:url(#Arrow1Lend)" d="m 73.409295,189.10505 9.555203,-9.61567" id="path77716" sodipodi:nodetypes="cc"/>
      <path style="fill:none;stroke:#000000;stroke-width:0.265;stroke-linecap:butt;stroke-linejoin:miter;stroke-miterlimit:4;stroke-dasharray:none;stroke-opacity:1;marker-start:url(#Arrow1Lstart);marker-end:url(#Arrow1Lend)" d="M 87.163278,178.03355 H 106.23452" id="path77848"/>
      <path style="fill:none;stroke:#000000;stroke-width:0.265;stroke-linecap:butt;stroke-linejoin:miter;stroke-miterlimit:4;stroke-dasharray:none;stroke-opacity:1;marker-start:url(#Arrow1Lstart);marker-end:url(#Arrow1Lend)" d="M 87.002738,171.53166 H 147.97506" id="path77930" sodipodi:nodetypes="cc"/>
      <path style="fill:none;stroke:#000000;stroke-width:0.265;stroke-linecap:butt;stroke-linejoin:miter;stroke-miterlimit:4;stroke-dasharray:none;stroke-opacity:1;marker-start:url(#Arrow1Lstart);marker-end:url(#Arrow1Lend)" d="m 152.25979,180.4514 v 9.55217" id="path78184"/>
      <rect style="fill:#8c8c8c;fill-opacity:1;stroke:#000000;stroke-width:0.679014;stroke-opacity:1" id="rect79185" width="17.661469" height="14.521242" x="298.33679" y="268.38495" ry="0" transform="matrix(1,0,-0.70747167,0.70674171,0,0)"/>
      <rect style="fill:#8c8c8c;fill-opacity:1;stroke:#000000;stroke-width:0.679014;stroke-opacity:1" id="rect79187" width="17.661469" height="14.521242" x="293.51559" y="261.57028" ry="0" transform="matrix(1,0,-0.70747167,0.70674171,0,0)"/>
      <rect style="fill:#8c8c8c;fill-opacity:1;stroke:#000000;stroke-width:0.679014;stroke-opacity:1" id="rect79189" width="17.661469" height="14.521242" x="288.82809" y="254.94458" ry="0" transform="matrix(1,0,-0.70747167,0.70674171,0,0)"/>
      <rect style="fill:#8c8c8c;fill-opacity:1;stroke:#000000;stroke-width:0.679014;stroke-opacity:1" id="rect79191" width="17.661469" height="14.521242" x="320.58658" y="268.38495" ry="0" transform="matrix(1,0,-0.70747167,0.70674171,0,0)"/>
      <rect style="fill:#8c8c8c;fill-opacity:1;stroke:#000000;stroke-width:0.679014;stroke-opacity:1" id="rect79193" width="17.661469" height="14.521242" x="315.76538" y="261.57028" ry="0" transform="matrix(1,0,-0.70747167,0.70674171,0,0)"/>
      <rect style="fill:#8c8c8c;fill-opacity:1;stroke:#000000;stroke-width:0.679014;stroke-opacity:1" id="rect79195" width="17.661469" height="14.521242" x="311.07788" y="254.94458" ry="0" transform="matrix(1,0,-0.70747167,0.70674171,0,0)"/>
      <rect style="fill:#8c8c8c;fill-opacity:1;stroke:#000000;stroke-width:0.679014;stroke-opacity:1" id="rect80192" width="17.661469" height="14.521242" x="275.98782" y="290.8017" ry="0" transform="matrix(1,0,-0.70747167,0.70674171,0,0)"/>
      <rect style="fill:#8c8c8c;fill-opacity:1;stroke:#000000;stroke-width:0.679014;stroke-opacity:1" id="rect80194" width="17.661469" height="14.521242" x="271.19501" y="284.00711" ry="0" transform="matrix(1,0,-0.70747167,0.70674171,0,0)"/>
      <rect style="fill:#8c8c8c;fill-opacity:1;stroke:#000000;stroke-width:0.679014;stroke-opacity:1" id="rect80196" width="17.661469" height="14.521242" x="266.47913" y="277.3613" ry="0" transform="matrix(1,0,-0.70747167,0.70674171,0,0)"/>
      <rect style="fill:#8c8c8c;fill-opacity:1;stroke:#000000;stroke-width:0.679014;stroke-opacity:1" id="rect80198" width="17.661469" height="14.521242" x="298.18915" y="290.73322" ry="0" transform="matrix(1,0,-0.70747167,0.70674171,0,0)"/>
      <rect style="fill:#8c8c8c;fill-opacity:1;stroke:#000000;stroke-width:0.679014;stroke-opacity:1" id="rect80200" width="17.661469" height="14.521242" x="293.36795" y="283.91855" ry="0" transform="matrix(1,0,-0.70747167,0.70674171,0,0)"/>
      <rect style="fill:#8c8c8c;fill-opacity:1;stroke:#000000;stroke-width:0.679014;stroke-opacity:1" id="rect80202" width="17.661469" height="14.521242" x="288.68045" y="277.29282" ry="0" transform="matrix(1,0,-0.70747167,0.70674171,0,0)"/>
      <rect style="fill:#8c8c8c;fill-opacity:1;stroke:#000000;stroke-width:0.679014;stroke-opacity:1" id="rect80204" width="17.661469" height="14.521242" x="320.43893" y="290.73322" ry="0" transform="matrix(1,0,-0.70747167,0.70674171,0,0)"/>
      <rect style="fill:#8c8c8c;fill-opacity:1;stroke:#000000;stroke-width:0.679014;stroke-opacity:1" id="rect80206" width="17.661469" height="14.521242" x="315.61774" y="283.91855" ry="0" transform="matrix(1,0,-0.70747167,0.70674171,0,0)"/>
      <rect style="fill:#8c8c8c;fill-opacity:1;stroke:#000000;stroke-width:0.679014;stroke-opacity:1" id="rect80208" width="17.661469" height="14.521242" x="310.93024" y="277.29282" ry="0" transform="matrix(1,0,-0.70747167,0.70674171,0,0)"/>
      <rect style="fill:#8c8c8c;fill-opacity:1;stroke:#000000;stroke-width:0.679014;stroke-opacity:1" id="rect80788" width="17.661469" height="14.521242" x="275.84018" y="313.14996" ry="0" transform="matrix(1,0,-0.70747167,0.70674171,0,0)"/>
      <rect style="fill:#8c8c8c;fill-opacity:1;stroke:#000000;stroke-width:0.679014;stroke-opacity:1" id="rect80790" width="17.661469" height="14.521242" x="271.04736" y="306.35538" ry="0" transform="matrix(1,0,-0.70747167,0.70674171,0,0)"/>
      <rect style="fill:#8c8c8c;fill-opacity:1;stroke:#000000;stroke-width:0.679014;stroke-opacity:1" id="rect80792" width="17.661469" height="14.521242" x="266.33148" y="299.70956" ry="0" transform="matrix(1,0,-0.70747167,0.70674171,0,0)"/>
      <rect style="fill:#8c8c8c;fill-opacity:1;stroke:#000000;stroke-width:0.679014;stroke-opacity:1" id="rect80794" width="17.661469" height="14.521242" x="298.0415" y="313.08148" ry="0" transform="matrix(1,0,-0.70747167,0.70674171,0,0)"/>
      <rect style="fill:#8c8c8c;fill-opacity:1;stroke:#000000;stroke-width:0.679014;stroke-opacity:1" id="rect80796" width="17.661469" height="14.521242" x="293.22031" y="306.26682" ry="0" transform="matrix(1,0,-0.70747167,0.70674171,0,0)"/>
      <rect style="fill:#8c8c8c;fill-opacity:1;stroke:#000000;stroke-width:0.679014;stroke-opacity:1" id="rect80798" width="17.661469" height="14.521242" x="288.53281" y="299.64108" ry="0" transform="matrix(1,0,-0.70747167,0.70674171,0,0)"/>
      <rect style="fill:#8c8c8c;fill-opacity:1;stroke:#000000;stroke-width:0.679014;stroke-opacity:1" id="rect80800" width="17.661469" height="14.521242" x="320.29129" y="313.08148" ry="0" transform="matrix(1,0,-0.70747167,0.70674171,0,0)"/>
      <rect style="fill:#8c8c8c;fill-opacity:1;stroke:#000000;stroke-width:0.679014;stroke-opacity:1" id="rect80802" width="17.661469" height="14.521242" x="315.47009" y="306.26682" ry="0" transform="matrix(1,0,-0.70747167,0.70674171,0,0)"/>
      <rect style="fill:#8c8c8c;fill-opacity:1;stroke:#000000;stroke-width:0.679014;stroke-opacity:1" id="rect80804" width="17.661469" height="14.521242" x="310.78259" y="299.64108" ry="0" transform="matrix(1,0,-0.70747167,0.70674171,0,0)"/>
    </g>
    <g id="g293203" transform="matrix(0.32918704,0,0,0.32918704,41.093028,80.524638)">
      <g id="g311947" transform="translate(3.371137,-2.495898)">
        <rect style="fill:#8c8c8c;fill-opacity:0.264019;stroke:#000000;stroke-width:1.46376;stroke-miterlimit:4;stroke-dasharray:none;stroke-opacity:1" id="rect163038" width="22.360226" height="45.929741" x="384.26703" y="123.54568" ry="0" transform="matrix(0,1,0.70674171,-0.70747167,0,0)"/>
        <rect style="fill:#8c8c8c;fill-opacity:0.264019;stroke:#000000;stroke-width:1.23055;stroke-miterlimit:4;stroke-dasharray:none;stroke-opacity:1" id="rect163040" width="22.805515" height="56.189869" x="296.98087" y="30.671604" ry="0" transform="matrix(0,1,0.99999249,-0.00387588,0,0)"/>
        <rect style="fill:#8c8c8c;fill-opacity:0.264019;stroke:#000000;stroke-width:1.46376;stroke-miterlimit:4;stroke-dasharray:none;stroke-opacity:1" id="rect163144" width="56.643513" height="46.572239" x="327.83997" y="373.47079" ry="0" transform="matrix(1,0,-0.70747167,0.70674171,0,0)"/>
        <text xml:space="preserve" style="font-size:23.8678px;line-height:0.85;font-family:Helvetica;-inkscape-font-specification:Helvetica;text-align:center;text-anchor:middle;stroke-width:0.596696" x="306.94565" y="288.68149" id="text172575" transform="skewX(-40.11662)"><tspan sodipodi:role="line" style="font-style:normal;font-variant:normal;font-weight:normal;font-stretch:normal;font-family:'Linux Libertine';-inkscape-font-specification:'Linux Libertine';stroke-width:0.596696" x="306.94565" y="288.68149" id="tspan172573">V</tspan></text>
      </g>
    </g>
    <path style="fill:none;stroke:#000000;stroke-width:0.565;stroke-linecap:butt;stroke-linejoin:miter;stroke-miterlimit:4;stroke-dasharray:none;stroke-opacity:1;marker-end:url(#Arrow1Lend)" d="m 81.574894,169.82291 c 5.50568,-1.41899 15.722413,6.35707 15.722413,6.35707" id="path352849" sodipodi:nodetypes="cc"/>
    <rect style="fill:#8c8c8c;fill-opacity:1;stroke:#000000;stroke-width:0.619177;stroke-opacity:1" id="rect90147" width="7.766726" height="21.527138" x="388.07904" y="262.65457" ry="0" transform="matrix(1,0,-0.70747167,0.70674171,0,0)"/>
    <rect style="fill:#8c8c8c;fill-opacity:1;stroke:#000000;stroke-width:0.619177;stroke-opacity:1" id="rect90065" width="7.766726" height="21.527138" x="383.68268" y="256.44043" ry="0" transform="matrix(1,0,-0.70747167,0.70674171,0,0)"/>
    <rect style="fill:#8c8c8c;fill-opacity:1;stroke:#000000;stroke-width:0.619177;stroke-opacity:1" id="rect37383-2" width="7.766726" height="21.527138" x="379.35962" y="250.32988" ry="0" transform="matrix(1,0,-0.70747167,0.70674171,0,0)"/>
    <text xml:space="preserve" style="font-size:5.01323px;line-height:0.85;font-family:Helvetica;-inkscape-font-specification:Helvetica;text-align:center;text-anchor:middle;stroke-width:0.125331" x="208.1487" y="172.77325" id="text43459-3"><tspan sodipodi:role="line" style="font-style:normal;font-variant:normal;font-weight:normal;font-stretch:normal;font-family:'Linux Libertine';-inkscape-font-specification:'Linux Libertine';stroke-width:0.125331" x="208.1487" y="172.77325" id="tspan43457-0">coupling</tspan></text>
    <text xml:space="preserve" style="font-size:5.01323px;line-height:0.85;font-family:Helvetica;-inkscape-font-specification:Helvetica;text-align:center;text-anchor:middle;stroke-width:0.125331" x="-0.18076579" y="262.21832" id="text49109-9" transform="rotate(-46.612673)"><tspan sodipodi:role="line" style="font-style:normal;font-variant:normal;font-weight:normal;font-stretch:normal;font-family:'Linux Libertine';-inkscape-font-specification:'Linux Libertine';stroke-width:0.125331" x="-0.18076596" y="262.21832" id="tspan49107-3">agents</tspan></text>
    <text xml:space="preserve" style="font-size:5.01323px;line-height:0.85;font-family:Helvetica;-inkscape-font-specification:Helvetica;text-align:center;text-anchor:middle;stroke-width:0.125331" x="255.86473" y="183.53477" id="text75981-5"><tspan sodipodi:role="line" style="font-style:normal;font-variant:normal;font-weight:normal;font-stretch:normal;font-family:'Linux Libertine';-inkscape-font-specification:'Linux Libertine';stroke-width:0.125331" x="255.86473" y="183.53477" id="tspan75979-7">time</tspan></text>
    <path style="fill:none;stroke:#000000;stroke-width:0.241647;stroke-linecap:butt;stroke-linejoin:miter;stroke-miterlimit:4;stroke-dasharray:none;stroke-opacity:1;marker-start:url(#Arrow1Lstart-0);marker-end:url(#Arrow1Lend-2)" d="M 184.17888,191.67388 199.29676,176.2447" id="path77716-4" sodipodi:nodetypes="cc"/>
    <path style="fill:none;stroke:#000000;stroke-width:0.241647;stroke-linecap:butt;stroke-linejoin:miter;stroke-miterlimit:4;stroke-dasharray:none;stroke-opacity:1;marker-start:url(#Arrow1Lstart-0);marker-end:url(#Arrow1Lend-2)" d="m 203.12553,174.91716 h 9.3756" id="path77848-0" sodipodi:nodetypes="cc"/>
    <path style="fill:none;stroke:#000000;stroke-width:0.241647;stroke-linecap:butt;stroke-linejoin:miter;stroke-miterlimit:4;stroke-dasharray:none;stroke-opacity:1;marker-start:url(#Arrow1Lstart-0);marker-end:url(#Arrow1Lend-2)" d="m 249.01736,177.26832 v 8.71041" id="path78184-9"/>
    <rect style="fill:#8c8c8c;fill-opacity:1;stroke:#000000;stroke-width:0.619177;stroke-opacity:1" id="rect90229" width="7.766726" height="21.527138" x="405.79263" y="262.65457" ry="0" transform="matrix(1,0,-0.70747167,0.70674171,0,0)"/>
    <rect style="fill:#8c8c8c;fill-opacity:1;stroke:#000000;stroke-width:0.619177;stroke-opacity:1" id="rect90231" width="7.766726" height="21.527138" x="401.39627" y="256.44043" ry="0" transform="matrix(1,0,-0.70747167,0.70674171,0,0)"/>
    <rect style="fill:#8c8c8c;fill-opacity:1;stroke:#000000;stroke-width:0.619177;stroke-opacity:1" id="rect90233" width="7.766726" height="21.527138" x="397.07321" y="250.32988" ry="0" transform="matrix(1,0,-0.70747167,0.70674171,0,0)"/>
    <rect style="fill:#8c8c8c;fill-opacity:1;stroke:#000000;stroke-width:0.619177;stroke-opacity:1" id="rect90235" width="7.766726" height="21.527138" x="423.3598" y="262.65457" ry="0" transform="matrix(1,0,-0.70747167,0.70674171,0,0)"/>
    <rect style="fill:#8c8c8c;fill-opacity:1;stroke:#000000;stroke-width:0.619177;stroke-opacity:1" id="rect90237" width="7.766726" height="21.527138" x="418.96347" y="256.44043" ry="0" transform="matrix(1,0,-0.70747167,0.70674171,0,0)"/>
    <rect style="fill:#8c8c8c;fill-opacity:1;stroke:#000000;stroke-width:0.619177;stroke-opacity:1" id="rect90239" width="7.766726" height="21.527138" x="414.64041" y="250.32988" ry="0" transform="matrix(1,0,-0.70747167,0.70674171,0,0)"/>
    <rect style="fill:#8c8c8c;fill-opacity:1;stroke:#000000;stroke-width:0.619177;stroke-opacity:1" id="rect90721" width="7.766726" height="21.527138" x="388.07904" y="262.65457" ry="0" transform="matrix(1,0,-0.70747167,0.70674171,0,0)"/>
    <rect style="fill:#8c8c8c;fill-opacity:1;stroke:#000000;stroke-width:0.619177;stroke-opacity:1" id="rect90723" width="7.766726" height="21.527138" x="383.68268" y="256.44043" ry="0" transform="matrix(1,0,-0.70747167,0.70674171,0,0)"/>
    <rect style="fill:#8c8c8c;fill-opacity:1;stroke:#000000;stroke-width:0.619177;stroke-opacity:1" id="rect90725" width="7.766726" height="21.527138" x="379.35962" y="250.32988" ry="0" transform="matrix(1,0,-0.70747167,0.70674171,0,0)"/>
    <rect style="fill:#8c8c8c;fill-opacity:1;stroke:#000000;stroke-width:0.619177;stroke-opacity:1" id="rect90727" width="7.766726" height="21.527138" x="387.9523" y="289.58255" ry="0" transform="matrix(1,0,-0.70747167,0.70674171,0,0)"/>
    <rect style="fill:#8c8c8c;fill-opacity:1;stroke:#000000;stroke-width:0.619177;stroke-opacity:1" id="rect90729" width="7.766726" height="21.527138" x="383.55594" y="283.36841" ry="0" transform="matrix(1,0,-0.70747167,0.70674171,0,0)"/>
    <rect style="fill:#8c8c8c;fill-opacity:1;stroke:#000000;stroke-width:0.619177;stroke-opacity:1" id="rect90731" width="7.766726" height="21.527138" x="379.23288" y="277.25781" ry="0" transform="matrix(1,0,-0.70747167,0.70674171,0,0)"/>
    <rect style="fill:#8c8c8c;fill-opacity:1;stroke:#000000;stroke-width:0.619177;stroke-opacity:1" id="rect92173" width="7.766726" height="21.527138" x="405.66589" y="289.58255" ry="0" transform="matrix(1,0,-0.70747167,0.70674171,0,0)"/>
    <rect style="fill:#8c8c8c;fill-opacity:1;stroke:#000000;stroke-width:0.619177;stroke-opacity:1" id="rect92175" width="7.766726" height="21.527138" x="401.26953" y="283.36841" ry="0" transform="matrix(1,0,-0.70747167,0.70674171,0,0)"/>
    <rect style="fill:#8c8c8c;fill-opacity:1;stroke:#000000;stroke-width:0.619177;stroke-opacity:1" id="rect92177" width="7.766726" height="21.527138" x="396.94647" y="277.25781" ry="0" transform="matrix(1,0,-0.70747167,0.70674171,0,0)"/>
    <rect style="fill:#8c8c8c;fill-opacity:1;stroke:#000000;stroke-width:0.619177;stroke-opacity:1" id="rect92179" width="7.766726" height="21.527138" x="423.23306" y="289.58255" ry="0" transform="matrix(1,0,-0.70747167,0.70674171,0,0)"/>
    <rect style="fill:#8c8c8c;fill-opacity:1;stroke:#000000;stroke-width:0.619177;stroke-opacity:1" id="rect92181" width="7.766726" height="21.527138" x="418.83676" y="283.36841" ry="0" transform="matrix(1,0,-0.70747167,0.70674171,0,0)"/>
    <rect style="fill:#8c8c8c;fill-opacity:1;stroke:#000000;stroke-width:0.619177;stroke-opacity:1" id="rect92183" width="7.766726" height="21.527138" x="414.51367" y="277.25781" ry="0" transform="matrix(1,0,-0.70747167,0.70674171,0,0)"/>
    <rect style="fill:#8c8c8c;fill-opacity:1;stroke:#000000;stroke-width:0.619177;stroke-opacity:1" id="rect92185" width="7.766726" height="21.527138" x="387.9523" y="289.58255" ry="0" transform="matrix(1,0,-0.70747167,0.70674171,0,0)"/>
    <rect style="fill:#8c8c8c;fill-opacity:1;stroke:#000000;stroke-width:0.619177;stroke-opacity:1" id="rect92187" width="7.766726" height="21.527138" x="383.55594" y="283.36841" ry="0" transform="matrix(1,0,-0.70747167,0.70674171,0,0)"/>
    <rect style="fill:#8c8c8c;fill-opacity:1;stroke:#000000;stroke-width:0.619177;stroke-opacity:1" id="rect92189" width="7.766726" height="21.527138" x="379.23288" y="277.25781" ry="0" transform="matrix(1,0,-0.70747167,0.70674171,0,0)"/>
    <rect style="fill:#8c8c8c;fill-opacity:1;stroke:#000000;stroke-width:0.619177;stroke-opacity:1" id="rect92191" width="7.766726" height="21.527138" x="405.66589" y="289.58255" ry="0" transform="matrix(1,0,-0.70747167,0.70674171,0,0)"/>
    <rect style="fill:#8c8c8c;fill-opacity:1;stroke:#000000;stroke-width:0.619177;stroke-opacity:1" id="rect92193" width="7.766726" height="21.527138" x="401.26953" y="283.36841" ry="0" transform="matrix(1,0,-0.70747167,0.70674171,0,0)"/>
    <rect style="fill:#8c8c8c;fill-opacity:1;stroke:#000000;stroke-width:0.619177;stroke-opacity:1" id="rect92195" width="7.766726" height="21.527138" x="396.94647" y="277.25781" ry="0" transform="matrix(1,0,-0.70747167,0.70674171,0,0)"/>
    <rect style="fill:#8c8c8c;fill-opacity:1;stroke:#000000;stroke-width:0.619177;stroke-opacity:1" id="rect92197" width="7.766726" height="21.527138" x="423.23306" y="289.58255" ry="0" transform="matrix(1,0,-0.70747167,0.70674171,0,0)"/>
    <rect style="fill:#8c8c8c;fill-opacity:1;stroke:#000000;stroke-width:0.619177;stroke-opacity:1" id="rect92199" width="7.766726" height="21.527138" x="418.83676" y="283.36841" ry="0" transform="matrix(1,0,-0.70747167,0.70674171,0,0)"/>
    <rect style="fill:#8c8c8c;fill-opacity:1;stroke:#000000;stroke-width:0.619177;stroke-opacity:1" id="rect92201" width="7.766726" height="21.527138" x="414.51367" y="277.25781" ry="0" transform="matrix(1,0,-0.70747167,0.70674171,0,0)"/>
    <rect style="fill:#8c8c8c;fill-opacity:1;stroke:#000000;stroke-width:0.619177;stroke-opacity:1" id="rect92203" width="7.766726" height="21.527138" x="387.9523" y="289.58255" ry="0" transform="matrix(1,0,-0.70747167,0.70674171,0,0)"/>
    <rect style="fill:#8c8c8c;fill-opacity:1;stroke:#000000;stroke-width:0.619177;stroke-opacity:1" id="rect92205" width="7.766726" height="21.527138" x="383.55594" y="283.36841" ry="0" transform="matrix(1,0,-0.70747167,0.70674171,0,0)"/>
    <rect style="fill:#8c8c8c;fill-opacity:1;stroke:#000000;stroke-width:0.619177;stroke-opacity:1" id="rect92207" width="7.766726" height="21.527138" x="379.23288" y="277.25781" ry="0" transform="matrix(1,0,-0.70747167,0.70674171,0,0)"/>
    <rect style="fill:#8c8c8c;fill-opacity:1;stroke:#000000;stroke-width:0.619177;stroke-opacity:1" id="rect92209" width="7.766726" height="21.527138" x="414.51367" y="277.25781" ry="0" transform="matrix(1,0,-0.70747167,0.70674171,0,0)"/>
    <rect style="fill:#8c8c8c;fill-opacity:1;stroke:#000000;stroke-width:0.619177;stroke-opacity:1" id="rect92211" width="7.766726" height="21.527138" x="405.53918" y="316.51053" ry="0" transform="matrix(1,0,-0.70747167,0.70674171,0,0)"/>
    <rect style="fill:#8c8c8c;fill-opacity:1;stroke:#000000;stroke-width:0.619177;stroke-opacity:1" id="rect92213" width="7.766726" height="21.527138" x="401.14279" y="310.29639" ry="0" transform="matrix(1,0,-0.70747167,0.70674171,0,0)"/>
    <rect style="fill:#8c8c8c;fill-opacity:1;stroke:#000000;stroke-width:0.619177;stroke-opacity:1" id="rect92215" width="7.766726" height="21.527138" x="396.81973" y="304.18579" ry="0" transform="matrix(1,0,-0.70747167,0.70674171,0,0)"/>
    <rect style="fill:#8c8c8c;fill-opacity:1;stroke:#000000;stroke-width:0.619177;stroke-opacity:1" id="rect92217" width="7.766726" height="21.527138" x="423.10632" y="316.51053" ry="0" transform="matrix(1,0,-0.70747167,0.70674171,0,0)"/>
    <rect style="fill:#8c8c8c;fill-opacity:1;stroke:#000000;stroke-width:0.619177;stroke-opacity:1" id="rect92219" width="7.766726" height="21.527138" x="418.71002" y="310.29639" ry="0" transform="matrix(1,0,-0.70747167,0.70674171,0,0)"/>
    <rect style="fill:#8c8c8c;fill-opacity:1;stroke:#000000;stroke-width:0.619177;stroke-opacity:1" id="rect92221" width="7.766726" height="21.527138" x="414.38696" y="304.18579" ry="0" transform="matrix(1,0,-0.70747167,0.70674171,0,0)"/>
    <rect style="fill:#8c8c8c;fill-opacity:1;stroke:#000000;stroke-width:0.619177;stroke-opacity:1" id="rect92223" width="7.766726" height="21.527138" x="387.82559" y="316.51053" ry="0" transform="matrix(1,0,-0.70747167,0.70674171,0,0)"/>
    <rect style="fill:#8c8c8c;fill-opacity:1;stroke:#000000;stroke-width:0.619177;stroke-opacity:1" id="rect92225" width="7.766726" height="21.527138" x="383.42923" y="310.29639" ry="0" transform="matrix(1,0,-0.70747167,0.70674171,0,0)"/>
    <rect style="fill:#8c8c8c;fill-opacity:1;stroke:#000000;stroke-width:0.619177;stroke-opacity:1" id="rect92227" width="7.766726" height="21.527138" x="379.10614" y="304.18579" ry="0" transform="matrix(1,0,-0.70747167,0.70674171,0,0)"/>
    <text xml:space="preserve" style="font-size:5.01323px;line-height:0.85;font-family:Helvetica;-inkscape-font-specification:Helvetica;text-align:center;text-anchor:middle;stroke-width:0.125331" x="228.97932" y="168.06267" id="text94790"><tspan sodipodi:role="line" style="font-style:normal;font-variant:normal;font-weight:normal;font-stretch:normal;font-family:'Linux Libertine';-inkscape-font-specification:'Linux Libertine';stroke-width:0.125331" x="228.97932" y="168.06267" id="tspan94788">parrallel</tspan></text>
    <path style="fill:none;stroke:#000000;stroke-width:0.21657;stroke-linecap:butt;stroke-linejoin:miter;stroke-miterlimit:4;stroke-dasharray:none;stroke-opacity:1;marker-start:url(#Arrow1Lstart-3);marker-end:url(#Arrow1Lend-9)" d="m 202.71504,169.58401 h 44.658" id="path94792" sodipodi:nodetypes="cc"/>
  </g>
</svg>